<svg width="22" height="18" viewBox="0 0 22 18" fill="none"
  xmlns="http://www.w3.org/2000/svg">
  <g style="mix-blend-mode:multiply">
    <path d="M21.6327 15.8757C21.638 16.0703 21.5704 16.2598 21.4436 16.406C21.2188 16.6594 20.8008 17.1321 13.5992 17.213C9.64754 17.2556 5.43962 17.1491 3.12662 16.9447C1.36824 16.7871 1.08462 16.6253 0.89555 16.3165C0.820642 16.193 0.782019 16.0505 0.784207 15.9055C0.784207 14.3617 7.7337 3.31402 10.5131 0.886427C11.0761 0.39452 11.5089 0.20286 11.9122 0.264615C12.2778 0.319981 13.3828 0.47757 17.5844 7.61979C18.9836 9.99201 21.6264 14.7684 21.6264 15.8757L21.6327 15.8757Z" fill="#432918"/>
  </g>
  <path d="M11.8195 0.897034C12.5968 1.01628 14.5821 3.85275 16.5064 7.03629C18.9392 11.061 21.2795 15.6372 20.9749 15.98C20.4013 16.6189 10.6368 16.7126 5.12841 16.4379C3.0276 16.3335 1.55703 16.1781 1.42888 15.98C0.983504 15.2645 10.0569 0.63511 11.8195 0.897034Z" fill="url(#paint0_linear_2091_124)"/>
  <path style="mix-blend-mode:multiply" d="M16.5064 7.03629C18.9392 11.061 21.2795 15.6372 20.9749 15.98C20.4014 16.6189 10.6368 16.7126 5.12843 16.4379L5.09271 16.4144C5.09271 16.4144 19.2396 16.2377 19.5316 15.2262C19.7837 14.3595 17.248 8.67172 16.5064 7.03629Z" fill="url(#paint1_linear_2091_124)"/>
  <path style="mix-blend-mode:screen" d="M3.6855 14.945C2.99223 14.4765 10.2569 2.4365 10.9858 2.36197C11.7148 2.28744 18.5068 11.9105 17.3387 12.6516C16.1706 13.3926 4.55524 15.5412 3.6855 14.945Z" fill="url(#paint2_linear_2091_124)"/>
  <defs>
    <linearGradient id="paint0_linear_2091_124" x1="10.1389" y1="17.7752" x2="17.7166" y2="3.75269" gradientUnits="userSpaceOnUse">
      <stop stop-color="#FF6831"/>
      <stop offset="1" stop-color="#FFCC1B"/>
    </linearGradient>
    <linearGradient id="paint1_linear_2091_124" x1="12.0842" y1="18.0009" x2="17.7654" y2="7.49201" gradientUnits="userSpaceOnUse">
      <stop stop-color="#FF6831"/>
      <stop offset="1" stop-color="#FFCC1B"/>
    </linearGradient>
    <linearGradient id="paint2_linear_2091_124" x1="4.01113" y1="6.33342" x2="12.6515" y2="12.1444" gradientUnits="userSpaceOnUse">
      <stop offset="0.02" stop-color="#FFE899"/>
      <stop offset="1"/>
    </linearGradient>
  </defs>
</svg>
