<svg width="59" height="59" viewBox="0 0 59 59" fill="none"
  xmlns="http://www.w3.org/2000/svg">
  <rect x="0.669922" y="0.609863" width="57.8916" height="57.8916" rx="28.9458" fill="url(#paint0_linear_2001_77349)"/>
  <path fill-rule="evenodd" clip-rule="evenodd" d="M42.8699 18.6383C44.3251 19.0313 45.4688 20.1779 45.8554 21.6314C46.5588 24.2692 46.5588 29.7763 46.5588 29.7763C46.5588 29.7763 46.5588 35.2834 45.8554 37.9212C45.4635 39.3801 44.3197 40.5267 42.8699 40.9143C40.2389 41.6195 29.6823 41.6195 29.6823 41.6195C29.6823 41.6195 19.131 41.6195 16.4946 40.9143C15.0394 40.5214 13.8957 39.3747 13.5091 37.9212C12.8057 35.2834 12.8057 29.7763 12.8057 29.7763C12.8057 29.7763 12.8057 24.2692 13.5091 21.6314C13.9011 20.1726 15.0448 19.0259 16.4946 18.6383C19.131 17.9331 29.6823 17.9331 29.6823 17.9331C29.6823 17.9331 40.2389 17.9331 42.8699 18.6383ZM35.1552 30.1236L26.3867 35.2V25.0471L35.1552 30.1236Z" fill="white"/>
  <defs>
    <linearGradient id="paint0_linear_2001_77349" x1="23.8266" y1="0.609865" x2="58.5615" y2="58.5014" gradientUnits="userSpaceOnUse">
      <stop stop-color="#803A09"/>
      <stop offset="1" stop-color="#D7B792"/>
    </linearGradient>
  </defs>
</svg>
