<svg width="59" height="59" viewBox="0 0 59 59" fill="none"
  xmlns="http://www.w3.org/2000/svg">
  <rect x="0.34082" y="0.609863" width="57.8916" height="57.8916" rx="28.9458" fill="url(#paint0_linear_2001_77355)"/>
  <path d="M15.6592 27.8254C15.6592 27.8254 29.398 21.9362 34.1628 19.8625C35.9894 19.0331 42.1837 16.3787 42.1837 16.3787C42.1837 16.3787 45.0427 15.2175 44.8044 18.0376C44.7249 19.1989 44.0897 23.2633 43.4544 27.6595C42.5013 33.8806 41.469 40.6823 41.469 40.6823C41.469 40.6823 41.3101 42.5901 39.9601 42.9219C38.6101 43.2536 36.3864 41.7607 35.9894 41.4288C35.6716 41.18 30.0332 37.4473 27.9685 35.6225C27.4125 35.1248 26.7773 34.1295 28.0478 32.9682C30.9068 30.2309 34.3216 26.8301 36.3864 24.6735C37.3394 23.6781 38.2923 21.3556 34.3216 24.1757C28.6832 28.2402 23.1242 32.0558 23.1242 32.0558C23.1242 32.0558 21.8535 32.8852 19.4711 32.1387C17.0886 31.3922 14.3091 30.3968 14.3091 30.3968C14.3091 30.3968 12.4032 29.1526 15.6592 27.8254Z" fill="white"/>
  <defs>
    <linearGradient id="paint0_linear_2001_77355" x1="23.4975" y1="0.609865" x2="58.2324" y2="58.5014" gradientUnits="userSpaceOnUse">
      <stop stop-color="#803A09"/>
      <stop offset="1" stop-color="#D7B792"/>
    </linearGradient>
  </defs>
</svg>
